<svg width="896" height="220" viewBox="0 0 896 220" fill="none" xmlns="http://www.w3.org/2000/svg">
<path fill-rule="evenodd" clip-rule="evenodd" d="M896 0H0V131V200.399L24.889 197.679C28.8896 197.209 33.5334 196.682 38.7168 196.094C65.7805 193.021 107.557 188.279 149.333 181.26C160.298 179.485 171.263 177.554 182.227 175.622C221.041 168.786 259.854 161.949 298.667 162.069C348.444 161.915 398.223 173.204 448 186.699C456.242 188.967 464.485 191.311 472.728 193.654C514.263 205.461 555.799 217.269 597.333 219.538C647.11 222.463 696.89 211.175 746.667 194.909C796.444 178.335 846.223 156.784 871.11 145.649L896 134.72L896 131V0Z" fill="#0253B3"/>
<path d="M112.398 102H107.31V84.2549H87.9561V102H82.8936V63.6094H87.9561V80.1152H107.31V63.6094H112.398V102ZM125.925 102H121.047V73.4707H125.925V102ZM120.651 65.9033C120.651 65.1123 120.889 64.4443 121.363 63.8994C121.855 63.3545 122.576 63.082 123.525 63.082C124.475 63.082 125.195 63.3545 125.688 63.8994C126.18 64.4443 126.426 65.1123 126.426 65.9033C126.426 66.6943 126.18 67.3535 125.688 67.8809C125.195 68.4082 124.475 68.6719 123.525 68.6719C122.576 68.6719 121.855 68.4082 121.363 67.8809C120.889 67.3535 120.651 66.6943 120.651 65.9033ZM133.598 109.646L130.829 107.748C132.481 105.445 133.343 103.072 133.413 100.629V96.2256H138.186V100.049C138.186 101.824 137.746 103.6 136.867 105.375C136.006 107.15 134.916 108.574 133.598 109.646ZM171.54 77.8477C170.802 77.7246 170.002 77.6631 169.141 77.6631C165.941 77.6631 163.771 79.0254 162.628 81.75V102H157.75V73.4707H162.496L162.575 76.7666C164.175 74.2178 166.442 72.9434 169.378 72.9434C170.327 72.9434 171.048 73.0664 171.54 73.3125V77.8477ZM187.36 102.527C183.493 102.527 180.347 101.262 177.921 98.7305C175.495 96.1816 174.282 92.7803 174.282 88.5264V87.6299C174.282 84.7998 174.818 82.2773 175.891 80.0625C176.98 77.8301 178.492 76.0898 180.426 74.8418C182.377 73.5762 184.486 72.9434 186.754 72.9434C190.463 72.9434 193.346 74.165 195.402 76.6084C197.459 79.0518 198.487 82.5498 198.487 87.1025V89.1328H179.16C179.23 91.9453 180.048 94.2217 181.612 95.9619C183.194 97.6846 185.198 98.5459 187.624 98.5459C189.347 98.5459 190.806 98.1943 192.001 97.4912C193.196 96.7881 194.242 95.8564 195.139 94.6963L198.118 97.0166C195.728 100.69 192.142 102.527 187.36 102.527ZM186.754 76.9512C184.785 76.9512 183.133 77.6719 181.797 79.1133C180.461 80.5371 179.635 82.541 179.318 85.125H193.609V84.7559C193.469 82.2773 192.801 80.3613 191.605 79.0078C190.41 77.6367 188.793 76.9512 186.754 76.9512ZM221.77 102C221.488 101.438 221.26 100.436 221.084 98.9941C218.816 101.35 216.109 102.527 212.963 102.527C210.15 102.527 207.839 101.736 206.028 100.154C204.235 98.5547 203.339 96.5332 203.339 94.0898C203.339 91.1191 204.464 88.8164 206.714 87.1816C208.981 85.5293 212.163 84.7031 216.259 84.7031H221.005V82.4619C221.005 80.7568 220.495 79.4033 219.476 78.4014C218.456 77.3818 216.953 76.8721 214.967 76.8721C213.227 76.8721 211.768 77.3115 210.59 78.1904C209.412 79.0693 208.823 80.1328 208.823 81.3809H203.919C203.919 79.957 204.42 78.5859 205.422 77.2676C206.441 75.9316 207.812 74.877 209.535 74.1035C211.275 73.3301 213.183 72.9434 215.257 72.9434C218.544 72.9434 221.119 73.7695 222.982 75.4219C224.846 77.0566 225.812 79.3154 225.883 82.1982V95.3291C225.883 97.9482 226.217 100.031 226.885 101.578V102H221.77ZM213.675 98.2822C215.204 98.2822 216.654 97.8867 218.025 97.0957C219.396 96.3047 220.39 95.2764 221.005 94.0107V88.1572H217.182C211.205 88.1572 208.217 89.9062 208.217 93.4043C208.217 94.9336 208.727 96.1289 209.746 96.9902C210.766 97.8516 212.075 98.2822 213.675 98.2822ZM232.343 87.498C232.343 83.1211 233.38 79.6055 235.454 76.9512C237.528 74.2793 240.244 72.9434 243.602 72.9434C246.941 72.9434 249.587 74.0859 251.538 76.3711V61.5H256.416V102H251.934L251.696 98.9414C249.745 101.332 247.029 102.527 243.549 102.527C240.244 102.527 237.546 101.174 235.454 98.4668C233.38 95.7598 232.343 92.2266 232.343 87.8672V87.498ZM237.221 88.0518C237.221 91.2861 237.889 93.8174 239.225 95.6455C240.561 97.4736 242.406 98.3877 244.762 98.3877C247.855 98.3877 250.114 96.999 251.538 94.2217V81.1172C250.079 78.4277 247.838 77.083 244.814 77.083C242.424 77.083 240.561 78.0059 239.225 79.8516C237.889 81.6973 237.221 84.4307 237.221 88.0518ZM273.344 94.8545L279.988 73.4707H285.209L273.739 106.403C271.964 111.149 269.143 113.522 265.275 113.522L264.353 113.443L262.533 113.101V109.146L263.852 109.251C265.504 109.251 266.787 108.917 267.701 108.249C268.633 107.581 269.397 106.359 269.995 104.584L271.076 101.684L260.898 73.4707H266.225L273.344 94.8545ZM305.38 102V77.2412H300.871V73.4707H305.38V70.5439C305.38 67.4854 306.197 65.1211 307.832 63.4512C309.467 61.7812 311.778 60.9463 314.767 60.9463C315.892 60.9463 317.008 61.0957 318.115 61.3945L317.852 65.3496C317.025 65.1914 316.146 65.1123 315.215 65.1123C313.633 65.1123 312.411 65.5781 311.55 66.5098C310.688 67.4238 310.258 68.7422 310.258 70.4648V73.4707H316.349V77.2412H310.258V102H305.38ZM320.462 87.4717C320.462 84.6768 321.007 82.1631 322.097 79.9307C323.204 77.6982 324.733 75.9756 326.685 74.7627C328.653 73.5498 330.895 72.9434 333.408 72.9434C337.293 72.9434 340.431 74.2881 342.821 76.9775C345.229 79.667 346.434 83.2441 346.434 87.709V88.0518C346.434 90.8291 345.897 93.3252 344.825 95.54C343.771 97.7373 342.25 99.4512 340.264 100.682C338.295 101.912 336.027 102.527 333.461 102.527C329.594 102.527 326.456 101.183 324.048 98.4932C321.657 95.8037 320.462 92.2441 320.462 87.8145V87.4717ZM325.366 88.0518C325.366 91.2158 326.096 93.7559 327.555 95.6719C329.031 97.5879 331 98.5459 333.461 98.5459C335.939 98.5459 337.908 97.5791 339.367 95.6455C340.826 93.6943 341.556 90.9697 341.556 87.4717C341.556 84.3428 340.809 81.8115 339.314 79.8779C337.838 77.9268 335.869 76.9512 333.408 76.9512C331 76.9512 329.058 77.9092 327.581 79.8252C326.104 81.7412 325.366 84.4834 325.366 88.0518ZM366.341 77.8477C365.603 77.7246 364.803 77.6631 363.941 77.6631C360.742 77.6631 358.571 79.0254 357.429 81.75V102H352.551V73.4707H357.297L357.376 76.7666C358.976 74.2178 361.243 72.9434 364.179 72.9434C365.128 72.9434 365.849 73.0664 366.341 73.3125V77.8477ZM401.857 102C401.576 101.438 401.348 100.436 401.172 98.9941C398.904 101.35 396.197 102.527 393.051 102.527C390.238 102.527 387.927 101.736 386.116 100.154C384.323 98.5547 383.427 96.5332 383.427 94.0898C383.427 91.1191 384.552 88.8164 386.802 87.1816C389.069 85.5293 392.251 84.7031 396.347 84.7031H401.093V82.4619C401.093 80.7568 400.583 79.4033 399.563 78.4014C398.544 77.3818 397.041 76.8721 395.055 76.8721C393.314 76.8721 391.855 77.3115 390.678 78.1904C389.5 79.0693 388.911 80.1328 388.911 81.3809H384.007C384.007 79.957 384.508 78.5859 385.51 77.2676C386.529 75.9316 387.9 74.877 389.623 74.1035C391.363 73.3301 393.271 72.9434 395.345 72.9434C398.632 72.9434 401.207 73.7695 403.07 75.4219C404.934 77.0566 405.9 79.3154 405.971 82.1982V95.3291C405.971 97.9482 406.305 100.031 406.973 101.578V102H401.857ZM393.763 98.2822C395.292 98.2822 396.742 97.8867 398.113 97.0957C399.484 96.3047 400.478 95.2764 401.093 94.0107V88.1572H397.27C391.293 88.1572 388.305 89.9062 388.305 93.4043C388.305 94.9336 388.814 96.1289 389.834 96.9902C390.854 97.8516 392.163 98.2822 393.763 98.2822ZM425.825 87.498C425.825 83.0156 426.854 79.4736 428.91 76.8721C430.967 74.2529 433.727 72.9434 437.189 72.9434C440.564 72.9434 443.228 74.0771 445.179 76.3447L445.39 73.4707H449.872V112.969H444.994V99.3633C443.025 101.473 440.406 102.527 437.137 102.527C433.691 102.527 430.94 101.191 428.884 98.5195C426.845 95.8301 425.825 92.2705 425.825 87.8408V87.498ZM430.703 88.0518C430.703 91.3213 431.389 93.8877 432.76 95.751C434.148 97.6143 436.012 98.5459 438.35 98.5459C441.25 98.5459 443.465 97.2627 444.994 94.6963V80.7217C443.447 78.208 441.25 76.9512 438.402 76.9512C436.047 76.9512 434.175 77.8916 432.786 79.7725C431.397 81.6357 430.703 84.3955 430.703 88.0518ZM475.316 99.1787C473.418 101.411 470.632 102.527 466.958 102.527C463.917 102.527 461.597 101.648 459.997 99.8906C458.415 98.1152 457.615 95.4961 457.598 92.0332V73.4707H462.476V91.9014C462.476 96.2256 464.233 98.3877 467.749 98.3877C471.476 98.3877 473.954 96.999 475.185 94.2217V73.4707H480.062V102H475.422L475.316 99.1787ZM492.798 102H487.92V73.4707H492.798V102ZM487.524 65.9033C487.524 65.1123 487.762 64.4443 488.236 63.8994C488.729 63.3545 489.449 63.082 490.398 63.082C491.348 63.082 492.068 63.3545 492.561 63.8994C493.053 64.4443 493.299 65.1123 493.299 65.9033C493.299 66.6943 493.053 67.3535 492.561 67.8809C492.068 68.4082 491.348 68.6719 490.398 68.6719C489.449 68.6719 488.729 68.4082 488.236 67.8809C487.762 67.3535 487.524 66.6943 487.524 65.9033ZM512.072 98.5459C513.812 98.5459 515.333 98.0186 516.634 96.9639C517.935 95.9092 518.655 94.5908 518.796 93.0088H523.41C523.322 94.6436 522.76 96.1992 521.723 97.6758C520.686 99.1523 519.297 100.33 517.557 101.209C515.834 102.088 514.006 102.527 512.072 102.527C508.188 102.527 505.094 101.235 502.791 98.6514C500.506 96.0498 499.363 92.499 499.363 87.999V87.1816C499.363 84.4043 499.873 81.9346 500.893 79.7725C501.912 77.6104 503.371 75.9316 505.27 74.7363C507.186 73.541 509.444 72.9434 512.046 72.9434C515.245 72.9434 517.899 73.9014 520.009 75.8174C522.136 77.7334 523.27 80.2207 523.41 83.2793H518.796C518.655 81.4336 517.952 79.9219 516.687 78.7441C515.438 77.5488 513.892 76.9512 512.046 76.9512C509.567 76.9512 507.643 77.8477 506.271 79.6406C504.918 81.416 504.241 83.9912 504.241 87.3662V88.2891C504.241 91.5762 504.918 94.1074 506.271 95.8828C507.625 97.6582 509.559 98.5459 512.072 98.5459ZM536.857 88.79L533.799 91.9805V102H528.921V61.5H533.799V85.9951L536.409 82.8574L545.295 73.4707H551.228L540.127 85.3887L552.52 102H546.798L536.857 88.79ZM576.276 66.5625V73.4707H581.603V77.2412H576.276V94.9336C576.276 96.0762 576.514 96.9375 576.988 97.5176C577.463 98.0801 578.271 98.3613 579.414 98.3613C579.977 98.3613 580.75 98.2559 581.734 98.0449V102C580.451 102.352 579.203 102.527 577.99 102.527C575.811 102.527 574.167 101.868 573.06 100.55C571.952 99.2314 571.398 97.3594 571.398 94.9336V77.2412H566.204V73.4707H571.398V66.5625H576.276ZM592.624 102H587.746V73.4707H592.624V102ZM587.351 65.9033C587.351 65.1123 587.588 64.4443 588.062 63.8994C588.555 63.3545 589.275 63.082 590.225 63.082C591.174 63.082 591.895 63.3545 592.387 63.8994C592.879 64.4443 593.125 65.1123 593.125 65.9033C593.125 66.6943 592.879 67.3535 592.387 67.8809C591.895 68.4082 591.174 68.6719 590.225 68.6719C589.275 68.6719 588.555 68.4082 588.062 67.8809C587.588 67.3535 587.351 66.6943 587.351 65.9033ZM605.043 73.4707L605.175 76.6348C607.267 74.1738 610.088 72.9434 613.639 72.9434C617.629 72.9434 620.345 74.4727 621.786 77.5312C622.735 76.1602 623.966 75.0527 625.478 74.209C627.007 73.3652 628.809 72.9434 630.883 72.9434C637.141 72.9434 640.322 76.2568 640.428 82.8838V102H635.55V83.1738C635.55 81.1348 635.084 79.6143 634.152 78.6123C633.221 77.5928 631.656 77.083 629.459 77.083C627.648 77.083 626.146 77.6279 624.95 78.7178C623.755 79.79 623.061 81.2402 622.867 83.0684V102H617.963V83.3057C617.963 79.1572 615.933 77.083 611.872 77.083C608.673 77.083 606.484 78.4453 605.307 81.1699V102H600.429V73.4707H605.043ZM659.649 102.527C655.782 102.527 652.636 101.262 650.21 98.7305C647.784 96.1816 646.571 92.7803 646.571 88.5264V87.6299C646.571 84.7998 647.107 82.2773 648.18 80.0625C649.27 77.8301 650.781 76.0898 652.715 74.8418C654.666 73.5762 656.775 72.9434 659.043 72.9434C662.752 72.9434 665.635 74.165 667.691 76.6084C669.748 79.0518 670.776 82.5498 670.776 87.1025V89.1328H651.449C651.52 91.9453 652.337 94.2217 653.901 95.9619C655.483 97.6846 657.487 98.5459 659.913 98.5459C661.636 98.5459 663.095 98.1943 664.29 97.4912C665.485 96.7881 666.531 95.8564 667.428 94.6963L670.407 97.0166C668.017 100.69 664.431 102.527 659.649 102.527ZM659.043 76.9512C657.074 76.9512 655.422 77.6719 654.086 79.1133C652.75 80.5371 651.924 82.541 651.607 85.125H665.898V84.7559C665.758 82.2773 665.09 80.3613 663.895 79.0078C662.699 77.6367 661.082 76.9512 659.043 76.9512ZM696.458 66.5625V73.4707H701.784V77.2412H696.458V94.9336C696.458 96.0762 696.695 96.9375 697.17 97.5176C697.645 98.0801 698.453 98.3613 699.596 98.3613C700.158 98.3613 700.932 98.2559 701.916 98.0449V102C700.633 102.352 699.385 102.527 698.172 102.527C695.992 102.527 694.349 101.868 693.241 100.55C692.134 99.2314 691.58 97.3594 691.58 94.9336V77.2412H686.386V73.4707H691.58V66.5625H696.458ZM721.296 77.8477C720.558 77.7246 719.758 77.6631 718.896 77.6631C715.697 77.6631 713.526 79.0254 712.384 81.75V102H707.506V73.4707H712.252L712.331 76.7666C713.931 74.2178 716.198 72.9434 719.134 72.9434C720.083 72.9434 720.804 73.0664 721.296 73.3125V77.8477ZM742.363 102C742.082 101.438 741.854 100.436 741.678 98.9941C739.41 101.35 736.703 102.527 733.557 102.527C730.744 102.527 728.433 101.736 726.622 100.154C724.829 98.5547 723.933 96.5332 723.933 94.0898C723.933 91.1191 725.058 88.8164 727.308 87.1816C729.575 85.5293 732.757 84.7031 736.853 84.7031H741.599V82.4619C741.599 80.7568 741.089 79.4033 740.069 78.4014C739.05 77.3818 737.547 76.8721 735.561 76.8721C733.82 76.8721 732.361 77.3115 731.184 78.1904C730.006 79.0693 729.417 80.1328 729.417 81.3809H724.513C724.513 79.957 725.014 78.5859 726.016 77.2676C727.035 75.9316 728.406 74.877 730.129 74.1035C731.869 73.3301 733.776 72.9434 735.851 72.9434C739.138 72.9434 741.713 73.7695 743.576 75.4219C745.439 77.0566 746.406 79.3154 746.477 82.1982V95.3291C746.477 97.9482 746.811 100.031 747.479 101.578V102H742.363ZM734.269 98.2822C735.798 98.2822 737.248 97.8867 738.619 97.0957C739.99 96.3047 740.983 95.2764 741.599 94.0107V88.1572H737.775C731.799 88.1572 728.811 89.9062 728.811 93.4043C728.811 94.9336 729.32 96.1289 730.34 96.9902C731.359 97.8516 732.669 98.2822 734.269 98.2822ZM763.114 95.3818L770.181 73.4707H775.164L764.934 102H761.216L750.88 73.4707H755.863L763.114 95.3818ZM791.327 102.527C787.46 102.527 784.313 101.262 781.888 98.7305C779.462 96.1816 778.249 92.7803 778.249 88.5264V87.6299C778.249 84.7998 778.785 82.2773 779.857 80.0625C780.947 77.8301 782.459 76.0898 784.393 74.8418C786.344 73.5762 788.453 72.9434 790.721 72.9434C794.43 72.9434 797.312 74.165 799.369 76.6084C801.426 79.0518 802.454 82.5498 802.454 87.1025V89.1328H783.127C783.197 91.9453 784.015 94.2217 785.579 95.9619C787.161 97.6846 789.165 98.5459 791.591 98.5459C793.313 98.5459 794.772 98.1943 795.968 97.4912C797.163 96.7881 798.209 95.8564 799.105 94.6963L802.085 97.0166C799.694 100.69 796.108 102.527 791.327 102.527ZM790.721 76.9512C788.752 76.9512 787.1 77.6719 785.764 79.1133C784.428 80.5371 783.602 82.541 783.285 85.125H797.576V84.7559C797.436 82.2773 796.768 80.3613 795.572 79.0078C794.377 77.6367 792.76 76.9512 790.721 76.9512ZM813.423 102H808.545V61.5H813.423V102Z" fill="#E7E7E7"/>
</svg>
