<svg width="897" height="165" viewBox="0 0 897 165" fill="none" xmlns="http://www.w3.org/2000/svg">
    <path fill-rule="evenodd" clip-rule="evenodd" d="M897 0H0V80V146.28L24.9167 143.683C28.9218 143.234 33.5706 142.73 38.7596 142.168C65.8535 139.234 107.677 134.705 149.5 128.001C160.477 126.306 171.454 124.462 182.43 122.617C221.287 116.088 260.144 109.558 299 109.673C348.833 109.526 398.667 120.307 448.5 133.195C456.752 135.362 465.003 137.6 473.255 139.838C514.836 151.115 556.419 162.392 598 164.559C647.833 167.352 697.667 156.571 747.5 141.036C797.333 125.207 847.167 104.625 872.083 93.9909L897 83.5526V80V0Z" fill="#0253B3"/>
    <path d="M112.898 72H107.81V54.2549H88.4561V72H83.3936V33.6094H88.4561V50.1152H107.81V33.6094H112.898V72ZM126.425 72H121.547V43.4707H126.425V72ZM121.151 35.9033C121.151 35.1123 121.389 34.4443 121.863 33.8994C122.355 33.3545 123.076 33.082 124.025 33.082C124.975 33.082 125.695 33.3545 126.188 33.8994C126.68 34.4443 126.926 35.1123 126.926 35.9033C126.926 36.6943 126.68 37.3535 126.188 37.8809C125.695 38.4082 124.975 38.6719 124.025 38.6719C123.076 38.6719 122.355 38.4082 121.863 37.8809C121.389 37.3535 121.151 36.6943 121.151 35.9033ZM134.098 79.6465L131.329 77.748C132.981 75.4453 133.843 73.0723 133.913 70.6289V66.2256H138.686V70.0488C138.686 71.8242 138.246 73.5996 137.367 75.375C136.506 77.1504 135.416 78.5742 134.098 79.6465ZM172.04 47.8477C171.302 47.7246 170.502 47.6631 169.641 47.6631C166.441 47.6631 164.271 49.0254 163.128 51.75V72H158.25V43.4707H162.996L163.075 46.7666C164.675 44.2178 166.942 42.9434 169.878 42.9434C170.827 42.9434 171.548 43.0664 172.04 43.3125V47.8477ZM187.86 72.5273C183.993 72.5273 180.847 71.2617 178.421 68.7305C175.995 66.1816 174.782 62.7803 174.782 58.5264V57.6299C174.782 54.7998 175.318 52.2773 176.391 50.0625C177.48 47.8301 178.992 46.0898 180.926 44.8418C182.877 43.5762 184.986 42.9434 187.254 42.9434C190.963 42.9434 193.846 44.165 195.902 46.6084C197.959 49.0518 198.987 52.5498 198.987 57.1025V59.1328H179.66C179.73 61.9453 180.548 64.2217 182.112 65.9619C183.694 67.6846 185.698 68.5459 188.124 68.5459C189.847 68.5459 191.306 68.1943 192.501 67.4912C193.696 66.7881 194.742 65.8564 195.639 64.6963L198.618 67.0166C196.228 70.6904 192.642 72.5273 187.86 72.5273ZM187.254 46.9512C185.285 46.9512 183.633 47.6719 182.297 49.1133C180.961 50.5371 180.135 52.541 179.818 55.125H194.109V54.7559C193.969 52.2773 193.301 50.3613 192.105 49.0078C190.91 47.6367 189.293 46.9512 187.254 46.9512ZM222.27 72C221.988 71.4375 221.76 70.4355 221.584 68.9941C219.316 71.3496 216.609 72.5273 213.463 72.5273C210.65 72.5273 208.339 71.7363 206.528 70.1543C204.735 68.5547 203.839 66.5332 203.839 64.0898C203.839 61.1191 204.964 58.8164 207.214 57.1816C209.481 55.5293 212.663 54.7031 216.759 54.7031H221.505V52.4619C221.505 50.7568 220.995 49.4033 219.976 48.4014C218.956 47.3818 217.453 46.8721 215.467 46.8721C213.727 46.8721 212.268 47.3115 211.09 48.1904C209.912 49.0693 209.323 50.1328 209.323 51.3809H204.419C204.419 49.957 204.92 48.5859 205.922 47.2676C206.941 45.9316 208.312 44.877 210.035 44.1035C211.775 43.3301 213.683 42.9434 215.757 42.9434C219.044 42.9434 221.619 43.7695 223.482 45.4219C225.346 47.0566 226.312 49.3154 226.383 52.1982V65.3291C226.383 67.9482 226.717 70.0312 227.385 71.5781V72H222.27ZM214.175 68.2822C215.704 68.2822 217.154 67.8867 218.525 67.0957C219.896 66.3047 220.89 65.2764 221.505 64.0107V58.1572H217.682C211.705 58.1572 208.717 59.9062 208.717 63.4043C208.717 64.9336 209.227 66.1289 210.246 66.9902C211.266 67.8516 212.575 68.2822 214.175 68.2822ZM232.843 57.498C232.843 53.1211 233.88 49.6055 235.954 46.9512C238.028 44.2793 240.744 42.9434 244.102 42.9434C247.441 42.9434 250.087 44.0859 252.038 46.3711V31.5H256.916V72H252.434L252.196 68.9414C250.245 71.332 247.529 72.5273 244.049 72.5273C240.744 72.5273 238.046 71.1738 235.954 68.4668C233.88 65.7598 232.843 62.2266 232.843 57.8672V57.498ZM237.721 58.0518C237.721 61.2861 238.389 63.8174 239.725 65.6455C241.061 67.4736 242.906 68.3877 245.262 68.3877C248.355 68.3877 250.614 66.999 252.038 64.2217V51.1172C250.579 48.4277 248.338 47.083 245.314 47.083C242.924 47.083 241.061 48.0059 239.725 49.8516C238.389 51.6973 237.721 54.4307 237.721 58.0518ZM273.844 64.8545L280.488 43.4707H285.709L274.239 76.4033C272.464 81.1494 269.643 83.5225 265.775 83.5225L264.853 83.4434L263.033 83.1006V79.1455L264.352 79.251C266.004 79.251 267.287 78.917 268.201 78.249C269.133 77.5811 269.897 76.3594 270.495 74.584L271.576 71.6836L261.398 43.4707H266.725L273.844 64.8545ZM305.88 72V47.2412H301.371V43.4707H305.88V40.5439C305.88 37.4854 306.697 35.1211 308.332 33.4512C309.967 31.7812 312.278 30.9463 315.267 30.9463C316.392 30.9463 317.508 31.0957 318.615 31.3945L318.352 35.3496C317.525 35.1914 316.646 35.1123 315.715 35.1123C314.133 35.1123 312.911 35.5781 312.05 36.5098C311.188 37.4238 310.758 38.7422 310.758 40.4648V43.4707H316.849V47.2412H310.758V72H305.88ZM320.962 57.4717C320.962 54.6768 321.507 52.1631 322.597 49.9307C323.704 47.6982 325.233 45.9756 327.185 44.7627C329.153 43.5498 331.395 42.9434 333.908 42.9434C337.793 42.9434 340.931 44.2881 343.321 46.9775C345.729 49.667 346.934 53.2441 346.934 57.709V58.0518C346.934 60.8291 346.397 63.3252 345.325 65.54C344.271 67.7373 342.75 69.4512 340.764 70.6816C338.795 71.9121 336.527 72.5273 333.961 72.5273C330.094 72.5273 326.956 71.1826 324.548 68.4932C322.157 65.8037 320.962 62.2441 320.962 57.8145V57.4717ZM325.866 58.0518C325.866 61.2158 326.596 63.7559 328.055 65.6719C329.531 67.5879 331.5 68.5459 333.961 68.5459C336.439 68.5459 338.408 67.5791 339.867 65.6455C341.326 63.6943 342.056 60.9697 342.056 57.4717C342.056 54.3428 341.309 51.8115 339.814 49.8779C338.338 47.9268 336.369 46.9512 333.908 46.9512C331.5 46.9512 329.558 47.9092 328.081 49.8252C326.604 51.7412 325.866 54.4834 325.866 58.0518ZM366.841 47.8477C366.103 47.7246 365.303 47.6631 364.441 47.6631C361.242 47.6631 359.071 49.0254 357.929 51.75V72H353.051V43.4707H357.797L357.876 46.7666C359.476 44.2178 361.743 42.9434 364.679 42.9434C365.628 42.9434 366.349 43.0664 366.841 43.3125V47.8477ZM402.357 72C402.076 71.4375 401.848 70.4355 401.672 68.9941C399.404 71.3496 396.697 72.5273 393.551 72.5273C390.738 72.5273 388.427 71.7363 386.616 70.1543C384.823 68.5547 383.927 66.5332 383.927 64.0898C383.927 61.1191 385.052 58.8164 387.302 57.1816C389.569 55.5293 392.751 54.7031 396.847 54.7031H401.593V52.4619C401.593 50.7568 401.083 49.4033 400.063 48.4014C399.044 47.3818 397.541 46.8721 395.555 46.8721C393.814 46.8721 392.355 47.3115 391.178 48.1904C390 49.0693 389.411 50.1328 389.411 51.3809H384.507C384.507 49.957 385.008 48.5859 386.01 47.2676C387.029 45.9316 388.4 44.877 390.123 44.1035C391.863 43.3301 393.771 42.9434 395.845 42.9434C399.132 42.9434 401.707 43.7695 403.57 45.4219C405.434 47.0566 406.4 49.3154 406.471 52.1982V65.3291C406.471 67.9482 406.805 70.0312 407.473 71.5781V72H402.357ZM394.263 68.2822C395.792 68.2822 397.242 67.8867 398.613 67.0957C399.984 66.3047 400.978 65.2764 401.593 64.0107V58.1572H397.77C391.793 58.1572 388.805 59.9062 388.805 63.4043C388.805 64.9336 389.314 66.1289 390.334 66.9902C391.354 67.8516 392.663 68.2822 394.263 68.2822ZM426.325 57.498C426.325 53.0156 427.354 49.4736 429.41 46.8721C431.467 44.2529 434.227 42.9434 437.689 42.9434C441.064 42.9434 443.728 44.0771 445.679 46.3447L445.89 43.4707H450.372V82.9688H445.494V69.3633C443.525 71.4727 440.906 72.5273 437.637 72.5273C434.191 72.5273 431.44 71.1914 429.384 68.5195C427.345 65.8301 426.325 62.2705 426.325 57.8408V57.498ZM431.203 58.0518C431.203 61.3213 431.889 63.8877 433.26 65.751C434.648 67.6143 436.512 68.5459 438.85 68.5459C441.75 68.5459 443.965 67.2627 445.494 64.6963V50.7217C443.947 48.208 441.75 46.9512 438.902 46.9512C436.547 46.9512 434.675 47.8916 433.286 49.7725C431.897 51.6357 431.203 54.3955 431.203 58.0518ZM475.816 69.1787C473.918 71.4111 471.132 72.5273 467.458 72.5273C464.417 72.5273 462.097 71.6484 460.497 69.8906C458.915 68.1152 458.115 65.4961 458.098 62.0332V43.4707H462.976V61.9014C462.976 66.2256 464.733 68.3877 468.249 68.3877C471.976 68.3877 474.454 66.999 475.685 64.2217V43.4707H480.562V72H475.922L475.816 69.1787ZM493.298 72H488.42V43.4707H493.298V72ZM488.024 35.9033C488.024 35.1123 488.262 34.4443 488.736 33.8994C489.229 33.3545 489.949 33.082 490.898 33.082C491.848 33.082 492.568 33.3545 493.061 33.8994C493.553 34.4443 493.799 35.1123 493.799 35.9033C493.799 36.6943 493.553 37.3535 493.061 37.8809C492.568 38.4082 491.848 38.6719 490.898 38.6719C489.949 38.6719 489.229 38.4082 488.736 37.8809C488.262 37.3535 488.024 36.6943 488.024 35.9033ZM512.572 68.5459C514.312 68.5459 515.833 68.0186 517.134 66.9639C518.435 65.9092 519.155 64.5908 519.296 63.0088H523.91C523.822 64.6436 523.26 66.1992 522.223 67.6758C521.186 69.1523 519.797 70.3301 518.057 71.209C516.334 72.0879 514.506 72.5273 512.572 72.5273C508.688 72.5273 505.594 71.2354 503.291 68.6514C501.006 66.0498 499.863 62.499 499.863 57.999V57.1816C499.863 54.4043 500.373 51.9346 501.393 49.7725C502.412 47.6104 503.871 45.9316 505.77 44.7363C507.686 43.541 509.944 42.9434 512.546 42.9434C515.745 42.9434 518.399 43.9014 520.509 45.8174C522.636 47.7334 523.77 50.2207 523.91 53.2793H519.296C519.155 51.4336 518.452 49.9219 517.187 48.7441C515.938 47.5488 514.392 46.9512 512.546 46.9512C510.067 46.9512 508.143 47.8477 506.771 49.6406C505.418 51.416 504.741 53.9912 504.741 57.3662V58.2891C504.741 61.5762 505.418 64.1074 506.771 65.8828C508.125 67.6582 510.059 68.5459 512.572 68.5459ZM537.357 58.79L534.299 61.9805V72H529.421V31.5H534.299V55.9951L536.909 52.8574L545.795 43.4707H551.728L540.627 55.3887L553.02 72H547.298L537.357 58.79ZM576.776 36.5625V43.4707H582.103V47.2412H576.776V64.9336C576.776 66.0762 577.014 66.9375 577.488 67.5176C577.963 68.0801 578.771 68.3613 579.914 68.3613C580.477 68.3613 581.25 68.2559 582.234 68.0449V72C580.951 72.3516 579.703 72.5273 578.49 72.5273C576.311 72.5273 574.667 71.8682 573.56 70.5498C572.452 69.2314 571.898 67.3594 571.898 64.9336V47.2412H566.704V43.4707H571.898V36.5625H576.776ZM593.124 72H588.246V43.4707H593.124V72ZM587.851 35.9033C587.851 35.1123 588.088 34.4443 588.562 33.8994C589.055 33.3545 589.775 33.082 590.725 33.082C591.674 33.082 592.395 33.3545 592.887 33.8994C593.379 34.4443 593.625 35.1123 593.625 35.9033C593.625 36.6943 593.379 37.3535 592.887 37.8809C592.395 38.4082 591.674 38.6719 590.725 38.6719C589.775 38.6719 589.055 38.4082 588.562 37.8809C588.088 37.3535 587.851 36.6943 587.851 35.9033ZM605.543 43.4707L605.675 46.6348C607.767 44.1738 610.588 42.9434 614.139 42.9434C618.129 42.9434 620.845 44.4727 622.286 47.5312C623.235 46.1602 624.466 45.0527 625.978 44.209C627.507 43.3652 629.309 42.9434 631.383 42.9434C637.641 42.9434 640.822 46.2568 640.928 52.8838V72H636.05V53.1738C636.05 51.1348 635.584 49.6143 634.652 48.6123C633.721 47.5928 632.156 47.083 629.959 47.083C628.148 47.083 626.646 47.6279 625.45 48.7178C624.255 49.79 623.561 51.2402 623.367 53.0684V72H618.463V53.3057C618.463 49.1572 616.433 47.083 612.372 47.083C609.173 47.083 606.984 48.4453 605.807 51.1699V72H600.929V43.4707H605.543ZM660.149 72.5273C656.282 72.5273 653.136 71.2617 650.71 68.7305C648.284 66.1816 647.071 62.7803 647.071 58.5264V57.6299C647.071 54.7998 647.607 52.2773 648.68 50.0625C649.77 47.8301 651.281 46.0898 653.215 44.8418C655.166 43.5762 657.275 42.9434 659.543 42.9434C663.252 42.9434 666.135 44.165 668.191 46.6084C670.248 49.0518 671.276 52.5498 671.276 57.1025V59.1328H651.949C652.02 61.9453 652.837 64.2217 654.401 65.9619C655.983 67.6846 657.987 68.5459 660.413 68.5459C662.136 68.5459 663.595 68.1943 664.79 67.4912C665.985 66.7881 667.031 65.8564 667.928 64.6963L670.907 67.0166C668.517 70.6904 664.931 72.5273 660.149 72.5273ZM659.543 46.9512C657.574 46.9512 655.922 47.6719 654.586 49.1133C653.25 50.5371 652.424 52.541 652.107 55.125H666.398V54.7559C666.258 52.2773 665.59 50.3613 664.395 49.0078C663.199 47.6367 661.582 46.9512 659.543 46.9512ZM696.958 36.5625V43.4707H702.284V47.2412H696.958V64.9336C696.958 66.0762 697.195 66.9375 697.67 67.5176C698.145 68.0801 698.953 68.3613 700.096 68.3613C700.658 68.3613 701.432 68.2559 702.416 68.0449V72C701.133 72.3516 699.885 72.5273 698.672 72.5273C696.492 72.5273 694.849 71.8682 693.741 70.5498C692.634 69.2314 692.08 67.3594 692.08 64.9336V47.2412H686.886V43.4707H692.08V36.5625H696.958ZM721.796 47.8477C721.058 47.7246 720.258 47.6631 719.396 47.6631C716.197 47.6631 714.026 49.0254 712.884 51.75V72H708.006V43.4707H712.752L712.831 46.7666C714.431 44.2178 716.698 42.9434 719.634 42.9434C720.583 42.9434 721.304 43.0664 721.796 43.3125V47.8477ZM742.863 72C742.582 71.4375 742.354 70.4355 742.178 68.9941C739.91 71.3496 737.203 72.5273 734.057 72.5273C731.244 72.5273 728.933 71.7363 727.122 70.1543C725.329 68.5547 724.433 66.5332 724.433 64.0898C724.433 61.1191 725.558 58.8164 727.808 57.1816C730.075 55.5293 733.257 54.7031 737.353 54.7031H742.099V52.4619C742.099 50.7568 741.589 49.4033 740.569 48.4014C739.55 47.3818 738.047 46.8721 736.061 46.8721C734.32 46.8721 732.861 47.3115 731.684 48.1904C730.506 49.0693 729.917 50.1328 729.917 51.3809H725.013C725.013 49.957 725.514 48.5859 726.516 47.2676C727.535 45.9316 728.906 44.877 730.629 44.1035C732.369 43.3301 734.276 42.9434 736.351 42.9434C739.638 42.9434 742.213 43.7695 744.076 45.4219C745.939 47.0566 746.906 49.3154 746.977 52.1982V65.3291C746.977 67.9482 747.311 70.0312 747.979 71.5781V72H742.863ZM734.769 68.2822C736.298 68.2822 737.748 67.8867 739.119 67.0957C740.49 66.3047 741.483 65.2764 742.099 64.0107V58.1572H738.275C732.299 58.1572 729.311 59.9062 729.311 63.4043C729.311 64.9336 729.82 66.1289 730.84 66.9902C731.859 67.8516 733.169 68.2822 734.769 68.2822ZM763.614 65.3818L770.681 43.4707H775.664L765.434 72H761.716L751.38 43.4707H756.363L763.614 65.3818ZM791.827 72.5273C787.96 72.5273 784.813 71.2617 782.388 68.7305C779.962 66.1816 778.749 62.7803 778.749 58.5264V57.6299C778.749 54.7998 779.285 52.2773 780.357 50.0625C781.447 47.8301 782.959 46.0898 784.893 44.8418C786.844 43.5762 788.953 42.9434 791.221 42.9434C794.93 42.9434 797.812 44.165 799.869 46.6084C801.926 49.0518 802.954 52.5498 802.954 57.1025V59.1328H783.627C783.697 61.9453 784.515 64.2217 786.079 65.9619C787.661 67.6846 789.665 68.5459 792.091 68.5459C793.813 68.5459 795.272 68.1943 796.468 67.4912C797.663 66.7881 798.709 65.8564 799.605 64.6963L802.585 67.0166C800.194 70.6904 796.608 72.5273 791.827 72.5273ZM791.221 46.9512C789.252 46.9512 787.6 47.6719 786.264 49.1133C784.928 50.5371 784.102 52.541 783.785 55.125H798.076V54.7559C797.936 52.2773 797.268 50.3613 796.072 49.0078C794.877 47.6367 793.26 46.9512 791.221 46.9512ZM813.923 72H809.045V31.5H813.923V72Z" fill="#E7E7E7"/>
    </svg>
